<?xml version="1.0" encoding="UTF-8" standalone="no"?>
<svg xmlns="http://www.w3.org/2000/svg" xml:space="preserve" height="134" width="234.7" version="1.1" y="0px" x="0px" viewBox="0 0 234.69999 134.00001"><style type="text/css">
	.st0{fill:#2D87BA;}
	.st1{fill:#2679A6;}
	.st2{fill:#FFFFFF;}
	.st3{fill:#4464AF;}
	.st4{fill:#3A5BA9;}
	.st5{fill:#58C6F2;}
	.st6{fill:#3AB5E6;}
	.st7{fill:#E1E2E1;}
	.st8{fill:#E5E5E5;}
	.st9{fill:#547DBF;}
	.st10{fill:#34A851;}
	.st11{fill:#F9BC15;}
	.st12{fill:#EA4435;}
	.st13{fill:#EF3F23;}
	.st14{fill:#DA3926;}
</style><rect style="fill:#4464af" height="41.7" width="234.7" y="24.8" x=".0000030518" class="st3"/><rect style="fill:#3a5ba9" height="41.7" width="1" y="24.8" x="41.7" class="st4"/><path style="fill:#ffffff" class="st2" d="m26.9 37.3v-4.5h-5.1c-2.5 0-4.5 2-4.5 4.5v3.7h-2.8v4.5h2.8v12.8h5.5v-12.7h3.6l.4-4.5h-4v-3c0-.4.4-.8.8-.8z"/><path style="fill:#e1e2e1" class="st7" d="m233.7 93.3v39.7h-232.7v-39.7h232.7m1-1h-234.7v41.7h234.7z"/><rect style="fill:#e5e5e5" height="41.7" width="1" y="92.3" x="41.7" class="st8"/><g transform="translate(-94.3 -184.4)"><path style="fill:#547dbf" class="st9" d="m129.5 297.5c0 .9-.1 1.8-.3 2.7-.6 2.8-2 5.3-4 7.1l-4.4-3.4c1.2-.9 2.2-2.2 2.7-3.7h-6.9v-5.2h12.6c.2.8.3 1.7.3 2.5z"/><path style="fill:#34a851" class="st10" d="m125.3 307.4c-2.3 2.2-5.4 3.5-8.9 3.5-5.2 0-9.6-3.1-11.8-7.5 1.6-1.2 3.1-2.4 4.5-3.4 1 3.2 3.9 5.5 7.3 5.5 1.7 0 3.2-.5 4.4-1.5z"/><path style="fill:#f9bc15" class="st11" d="m108.8 297.5c0 .9.1 1.7.4 2.4-1.4 1-3 2.2-4.5 3.4-.8-1.8-1.3-3.8-1.3-5.9s.5-4.2 1.4-6l4.5 3.4c-.4 1-.5 1.8-.5 2.7z"/><path style="fill:#ea4435" class="st12" d="m125.3 287.6-3.9 3.9c-1.3-1.2-3.1-1.9-5-1.9-2.8 0-5.3 1.6-6.6 3.9-.3.5-.5 1-.6 1.5l-4.5-3.4c.1-.2.2-.5.4-.7 2.3-4 6.5-6.7 11.4-6.7 3.3-.1 6.4 1.2 8.8 3.4z"/></g><g transform="translate(-86.3,-184.4)"><path style="fill:#ffffff" class="st2" d="m178.9 227.9h1.3l1.2 4.5c.2.7.3 1.4.5 2.2h.1c.2-.7.3-1.4.5-2.2l1.2-4.5h1.3l1.2 4.5c.2.7.4 1.4.5 2.2h.1c.2-.7.3-1.4.5-2.2l1.1-4.5h1.2l-2.1 7.8h-1.6l-1.1-4.2c-.2-.7-.3-1.5-.5-2.2h-.1c-.2.8-.3 1.5-.5 2.3l-1.1 4.2h-1.6z"/><path style="fill:#ffffff" class="st2" d="m191.2 225.5c0-.5.4-.8.9-.8s.9.3.9.8-.4.8-.9.8-.9-.3-.9-.8zm.2 2.4h1.3v7.8h-1.3z"/><path style="fill:#ffffff" class="st2" d="m195.7 233.3v-4.3h-1.2v-1l1.2-.1.2-2.2h1.1v2.2h2.1v1.1h-2.1v4.3c0 1 .3 1.5 1.2 1.5.3 0 .6-.1.9-.2l.3 1c-.4.1-1 .3-1.4.3-1.7 0-2.3-1.1-2.3-2.6z"/><path style="fill:#ffffff" class="st2" d="m201.1 224.3h1.3v4.7c.7-.7 1.5-1.3 2.6-1.3 1.6 0 2.4 1.1 2.4 3v4.9h-1.4v-4.8c0-1.5-.4-2.1-1.5-2.1-.8 0-1.3.4-2.1 1.2v5.6h-1.3z"/><path style="fill:#ffffff" class="st2" d="m213.4 225.2h6.1v1.1h-4.7v3.6h4v1.1h-4v4.7h-1.3v-10.5z"/><path style="fill:#ffffff" class="st2" d="m220.4 233.7c0-1.7 1.5-2.5 4.8-2.9 0-1-.3-2-1.6-2-.9 0-1.7.4-2.3.8l-.5-.9c.7-.5 1.8-1 3.1-1 1.9 0 2.7 1.3 2.7 3.2v4.8h-1.1l-.1-.9c-.7.6-1.6 1.1-2.6 1.1-1.5 0-2.4-.8-2.4-2.2zm4.7.1v-2.2c-2.6.3-3.5 1-3.5 2 0 .9.6 1.2 1.4 1.2s1.4-.3 2.1-1z"/><path style="fill:#ffffff" class="st2" d="m228.5 231.8c0-2.6 1.7-4.1 3.7-4.1 1 0 1.7.4 2.3.9l-.7.9c-.4-.4-.9-.7-1.6-.7-1.4 0-2.4 1.2-2.4 3s1 3 2.4 3c.7 0 1.3-.4 1.8-.8l.6.9c-.7.6-1.6 1-2.5 1-2 0-3.6-1.5-3.6-4.1z"/><path style="fill:#ffffff" class="st2" d="m235.6 231.8c0-2.5 1.7-4.1 3.5-4.1 2 0 3.1 1.4 3.1 3.6v.8h-5.2c.1 1.6 1.1 2.7 2.6 2.7.7 0 1.4-.2 1.9-.6l.5.9c-.7.4-1.5.8-2.6.8-2.1 0-3.8-1.5-3.8-4.1zm5.4-.6c0-1.6-.7-2.4-1.9-2.4-1.1 0-2.1.9-2.2 2.4z"/><path style="fill:#ffffff" class="st2" d="m245.5 234.9-.2.8h-1.1v-11.4h1.3v4.5c.7-.6 1.6-1.1 2.4-1.1 2 0 3.1 1.6 3.1 4 0 2.7-1.6 4.2-3.4 4.2-.6 0-1.4-.4-2.1-1zm4.2-3.2c0-1.7-.6-2.9-2-2.9-.7 0-1.3.4-2.1 1.1v4.1c.7.6 1.4.8 1.9.8 1.3 0 2.2-1.2 2.2-3.1z"/><path style="fill:#ffffff" class="st2" d="m252.7 231.8c0-2.6 1.7-4.1 3.6-4.1s3.6 1.5 3.6 4.1-1.7 4.1-3.6 4.1-3.6-1.5-3.6-4.1zm5.9 0c0-1.8-.9-3-2.2-3s-2.2 1.2-2.2 3 .9 3 2.2 3 2.2-1.2 2.2-3z"/><path style="fill:#ffffff" class="st2" d="m261.5 231.8c0-2.6 1.7-4.1 3.6-4.1s3.6 1.5 3.6 4.1-1.7 4.1-3.6 4.1-3.6-1.5-3.6-4.1zm5.9 0c0-1.8-.9-3-2.2-3s-2.2 1.2-2.2 3 .9 3 2.2 3 2.2-1.2 2.2-3z"/><path style="fill:#ffffff" class="st2" d="m270.9 224.3h1.3v7.7l3.3-4.1h1.5l-2.6 3.1 3 4.7h-1.4l-2.3-3.7-1.5 1.7v2h-1.3z"/></g><g transform="translate(-81.819,-184.4)"><path d="m174.8 293.7h1.3l1.2 4.5c.2.7.3 1.4.5 2.2h.1c.2-.7.3-1.4.5-2.2l1.2-4.5h1.3l1.2 4.5c.2.7.4 1.4.5 2.2h.1c.2-.7.3-1.4.5-2.2l1.1-4.5h1.2l-2.1 7.8h-1.6l-1.1-4.2c-.2-.7-.3-1.5-.5-2.2h-.1c-.2.8-.3 1.5-.5 2.3l-1.1 4.2h-1.5z"/><path d="m187.1 291.2c0-.5.4-.8.9-.8s.9.3.9.8-.4.8-.9.8c-.5.1-.9-.3-.9-.8zm.2 2.5h1.3v7.8h-1.3z"/><path d="m191.7 299.1v-4.3h-1.2v-1l1.2-.1.2-2.2h1.1v2.2h2.1v1.1h-2.1v4.3c0 1 .3 1.5 1.2 1.5.3 0 .6-.1.9-.2l.3 1c-.4.1-1 .3-1.4.3-1.8 0-2.3-1.1-2.3-2.6z"/><path d="m197 290.1h1.3v4.7c.7-.7 1.5-1.3 2.6-1.3 1.6 0 2.4 1.1 2.4 3v4.9h-1.3v-4.8c0-1.5-.4-2.1-1.5-2.1-.8 0-1.3.4-2.1 1.2v5.6h-1.4z"/><path d="m208.8 296.2c0-3.4 2-5.4 4.8-5.4 1.5 0 2.4.7 3 1.3l-.7.9c-.5-.5-1.2-1-2.3-1-2.1 0-3.5 1.6-3.5 4.2s1.2 4.3 3.5 4.3c.8 0 1.5-.2 1.9-.6v-2.7h-2.2v-1.2h3.4v4.4c-.7.7-1.8 1.2-3.2 1.2-2.8.1-4.7-1.9-4.7-5.4z"/><path d="m218.7 297.6c0-2.6 1.7-4.1 3.6-4.1s3.6 1.5 3.6 4.1-1.7 4.1-3.6 4.1-3.6-1.5-3.6-4.1zm5.8 0c0-1.8-.9-3-2.2-3s-2.2 1.2-2.2 3 .9 3 2.2 3 2.2-1.2 2.2-3z"/><path d="m227.5 297.6c0-2.6 1.7-4.1 3.6-4.1s3.6 1.5 3.6 4.1-1.7 4.1-3.6 4.1-3.6-1.5-3.6-4.1zm5.9 0c0-1.8-.9-3-2.2-3s-2.2 1.2-2.2 3 .9 3 2.2 3 2.2-1.2 2.2-3z"/><path d="m236.3 303c0-.7.4-1.3 1.1-1.8v-.1c-.4-.2-.7-.7-.7-1.3 0-.7.4-1.2.8-1.4v-.1c-.5-.4-1-1.2-1-2.1 0-1.7 1.3-2.8 2.9-2.8.4 0 .8.1 1.1.2h2.7v1h-1.6c.4.4.6.9.6 1.6 0 1.7-1.3 2.7-2.8 2.7-.4 0-.8-.1-1.2-.3-.3.2-.5.5-.5.9 0 .5.3.8 1.4.8h1.5c1.8 0 2.7.6 2.7 1.9 0 1.4-1.5 2.7-3.9 2.7-1.7.2-3.1-.6-3.1-1.9zm5.9-.4c0-.7-.6-1-1.6-1h-1.3c-.3 0-.7 0-1-.1-.6.4-.8.9-.8 1.3 0 .8.8 1.4 2.3 1.4 1.4 0 2.4-.8 2.4-1.6zm-1-6.3c0-1.1-.7-1.8-1.6-1.8s-1.6.7-1.6 1.8.8 1.9 1.6 1.9 1.6-.8 1.6-1.9z"/><path d="m245.2 299.9v-9.8h1.3v9.9c0 .4.2.6.4.6h.3l.2 1c-.2.1-.4.1-.8.1-1 0-1.4-.7-1.4-1.8z"/><path d="m248.8 297.6c0-2.5 1.7-4.1 3.5-4.1 2 0 3.1 1.4 3.1 3.6v.8h-5.2c.1 1.6 1.1 2.7 2.6 2.7.7 0 1.4-.2 1.9-.6l.5.9c-.7.4-1.5.8-2.6.8-2.1 0-3.8-1.6-3.8-4.1zm5.5-.6c0-1.6-.7-2.4-1.9-2.4-1.1 0-2.1.9-2.2 2.4z"/></g><g aria-label="Login" style="fill:#ffffff" transform="matrix(3.7795 0 0 3.7795 .094775 24.777)"><path style="stroke-width:.11016px;fill:#ffffff" d="m13.825 4.1624h.36574v2.5778h1.2647v.31286h-1.6304z"/><path style="stroke-width:.11016px;fill:#ffffff" d="m15.722 5.9867q0-.26880.07932-.47590.08372-.21151.22033-.35693.13660-.14542.31286-.22033.18067-.074911.37896-.074911t.37455.074911q.18067.074911.31727.22033t.21592.35693q.08372.20711.08372.47590 0 .26439-.08372.47590-.07932.20711-.21592.35252-.13660.14101-.31727.21592-.17626.074911-.37455.074911t-.37896-.074911q-.175-.0749-.312-.2159-.136-.1454-.220-.3525-.080-.2115-.080-.4759zm.37455 0q0 .18507.04407.33490.04406.14982.12338.25998.08372.10576.19829.16745.11457.057285.25117.057285t.25117-.057285q.11457-.061691.19389-.16745.08372-.11016.12779-.25998.04406-.14982.04406-.33490 0-.18507-.04406-.33490-.04407-.15423-.12779-.26439-.07932-.11016-.19389-.16745-.11457-.061691-.25117-.061691t-.25117.061691q-.11457.057285-.19829.16745-.07932.11016-.12338.26439-.04407.14982-.04407.33490z"/><path style="stroke-width:.11016px;fill:#ffffff" d="m18.428 7.4144q0 .17185.16304.27320.16745.10135.45828.10135.15423 0 .27761-.039659.12779-.035252.21592-.096944.08813-.057285.13660-.13660.04847-.079318.04847-.16304 0-.14982-.11016-.20711-.11016-.057285-.32168-.057285h-.370q-.06169 0-.13660-.00881-.0705-.00441-.14101-.026439-.11457.083724-.16745.17626-.05288.092537-.05288.18507zm-.31727.048472q0-.13660.08372-.25998t.22914-.22473v-.017626q-.07932-.048472-.13660-.13220-.05288-.08813-.05288-.21592 0-.13660.07491-.23795t.15864-.15863v-.017626q-.10575-.088131-.19388-.23355-.08372-.14982-.08372-.34371 0-.17626.06169-.31727.0661-.14101.17626-.23795.11016-.10135.25558-.15423.14982-.052878.31286-.052878.08813 0 .16304.017626.07932.01322.14101.035252h.74470v.27761h-.44065q.07491.074911.12338.18948.05288.11457.05288.25117 0 .17185-.06169.31286-.06169.13660-.16745.23355-.10576.092537-.25117.14542-.14101.052878-.30405.052878-.07932 0-.16304-.017626-.08372-.022033-.15864-.057285-.05729.048472-.09694.11016-.03966.057285-.03966.14542 0 .10135.07932.16745.07932.066098.29964.066098h.41421q.37455 0 .55963.12338.18948.11898.18948.38777 0 .14982-.07491.28202-.07491.13660-.21592.23795t-.34371.15863q-.19829.061691-.44946.061691-.19829 0-.36134-.039659-.164-.0354-.283-.1103-.115-.0749-.181-.1807-.061-.1057-.061-.2467zm.88571-1.3308q.09254 0 .17185-.035252.08372-.035252.14542-.10135.0661-.066098.10135-.15863.03525-.096944.03525-.21592 0-.23795-.13220-.36574-.13220-.13220-.32168-.13220t-.32168.13220q-.13220.12779-.13220.36574 0 .11898.03525.21592.03525.092537.09694.15863.0661.066098.14542.10135.08372.035252.17626.035252z"/><path style="stroke-width:.11016px;fill:#ffffff" d="m20.679 4.4709q-.10576 0-.18067-.066098-.0705-.066098-.0705-.16745 0-.10576.0705-.16745.07491-.066098.18067-.066098t.17626.066098q.07491.061691.07491.16745 0 .10135-.07491.16745-.07051.066098-.17626.066098zm-.185.4406h.36134v2.1416h-.36134z"/><path style="stroke-width:.11016px;fill:#ffffff" d="m21.579 4.9115h.29964l.03084.30846h.01322q.15423-.15423.32168-.25558.17186-.10576.39659-.10576.33930 0 .49353.21151.15864.21151.15864.62573v1.3572h-.36133v-1.3088q0-.30405-.09694-.43625-.09694-.13660-.30846-.13660-.16745 0-.29524.083724t-.29083.24677v1.5512h-.362z"/></g><g aria-label="Login" style="fill:#000000" transform="matrix(3.7795 0 0 3.7795 .18377 90.32)"><path style="stroke-width:.11016px;fill:#000000" d="m13.825 4.1624h.36574v2.5778h1.2647v.31286h-1.6304z"/><path style="stroke-width:.11016px;fill:#000000" d="m15.722 5.9867q0-.26880.07932-.47590.08372-.21151.22033-.35693.13660-.14542.31286-.22033.18067-.074911.37896-.074911t.37455.074911q.18067.074911.31727.22033t.21592.35693q.08372.20711.08372.47590 0 .26439-.08372.47590-.07932.20711-.21592.35252-.13660.14101-.31727.21592-.17626.074911-.37455.074911t-.37896-.074911q-.175-.0749-.312-.2159-.136-.1454-.220-.3525-.080-.2115-.080-.4759zm.37455 0q0 .18507.04407.33490.04406.14982.12338.25998.08372.10576.19829.16745.11457.057285.25117.057285t.25117-.057285q.11457-.061691.19389-.16745.08372-.11016.12779-.25998.04406-.14982.04406-.33490 0-.18507-.04406-.33490-.04407-.15423-.12779-.26439-.07932-.11016-.19389-.16745-.11457-.061691-.25117-.061691t-.25117.061691q-.11457.057285-.19829.16745-.07932.11016-.12338.26439-.04407.14982-.04407.33490z"/><path style="stroke-width:.11016px;fill:#000000" d="m18.428 7.4144q0 .17185.16304.27320.16745.10135.45828.10135.15423 0 .27761-.039659.12779-.035252.21592-.096944.08813-.057285.13660-.13660.04847-.079318.04847-.16304 0-.14982-.11016-.20711-.11016-.057285-.32168-.057285h-.370q-.06169 0-.13660-.00881-.0705-.00441-.14101-.026439-.11457.083724-.16745.17626-.05288.092537-.05288.18507zm-.31727.048472q0-.13660.08372-.25998t.22914-.22473v-.017626q-.07932-.048472-.13660-.13220-.05288-.08813-.05288-.21592 0-.13660.07491-.23795t.15864-.15863v-.017626q-.10575-.088131-.19388-.23355-.08372-.14982-.08372-.34371 0-.17626.06169-.31727.0661-.14101.17626-.23795.11016-.10135.25558-.15423.14982-.052878.31286-.052878.08813 0 .16304.017626.07932.01322.14101.035252h.74470v.27761h-.44065q.07491.074911.12338.18948.05288.11457.05288.25117 0 .17185-.06169.31286-.06169.13660-.16745.23355-.10576.092537-.25117.14542-.14101.052878-.30405.052878-.07932 0-.16304-.017626-.08372-.022033-.15864-.057285-.05729.048472-.09694.11016-.03966.057285-.03966.14542 0 .10135.07932.16745.07932.066098.29964.066098h.41421q.37455 0 .55963.12338.18948.11898.18948.38777 0 .14982-.07491.28202-.07491.13660-.21592.23795t-.34371.15863q-.19829.061691-.44946.061691-.19829 0-.36134-.039659-.164-.0354-.283-.1103-.115-.0749-.181-.1807-.061-.1057-.061-.2467zm.88571-1.3308q.09254 0 .17185-.035252.08372-.035252.14542-.10135.0661-.066098.10135-.15863.03525-.096944.03525-.21592 0-.23795-.13220-.36574-.13220-.13220-.32168-.13220t-.32168.13220q-.13220.12779-.13220.36574 0 .11898.03525.21592.03525.092537.09694.15863.0661.066098.14542.10135.08372.035252.17626.035252z"/><path style="stroke-width:.11016px;fill:#000000" d="m20.679 4.4709q-.10576 0-.18067-.066098-.0705-.066098-.0705-.16745 0-.10576.0705-.16745.07491-.066098.18067-.066098t.17626.066098q.07491.061691.07491.16745 0 .10135-.07491.16745-.07051.066098-.17626.066098zm-.185.4406h.36134v2.1416h-.36134z"/><path style="stroke-width:.11016px;fill:#000000" d="m21.579 4.9115h.29964l.03084.30846h.01322q.15423-.15423.32168-.25558.17186-.10576.39659-.10576.33930 0 .49353.21151.15864.21151.15864.62573v1.3572h-.36133v-1.3088q0-.30405-.09694-.43625-.09694-.13660-.30846-.13660-.16745 0-.29524.083724t-.29083.24677v1.5512h-.362z"/></g></svg>
