<?xml version="1.0" encoding="UTF-8" standalone="no"?>
<!-- Created with Inkscape (http://www.inkscape.org/) -->

<svg
   xmlns:dc="http://purl.org/dc/elements/1.1/"
   xmlns:cc="http://creativecommons.org/ns#"
   xmlns:rdf="http://www.w3.org/1999/02/22-rdf-syntax-ns#"
   xmlns:svg="http://www.w3.org/2000/svg"
   xmlns="http://www.w3.org/2000/svg"
   xmlns:sodipodi="http://sodipodi.sourceforge.net/DTD/sodipodi-0.dtd"
   xmlns:inkscape="http://www.inkscape.org/namespaces/inkscape"
   width="59.286808mm"
   height="39.701157mm"
   viewBox="0 0 59.286808 39.701157"
   version="1.1"
   id="svg46907"
   inkscape:version="0.92.3 (2405546, 2018-03-11)"
   sodipodi:docname="logo_try1.svg">
  <defs
     id="defs46901" />
  <sodipodi:namedview
     id="base"
     pagecolor="#ffffff"
     bordercolor="#666666"
     borderopacity="1.0"
     inkscape:pageopacity="0.0"
     inkscape:pageshadow="2"
     inkscape:zoom="1.979899"
     inkscape:cx="63.034525"
     inkscape:cy="91.966742"
     inkscape:document-units="mm"
     inkscape:current-layer="g380"
     showgrid="false"
     fit-margin-top="0"
     fit-margin-left="0"
     fit-margin-right="0"
     fit-margin-bottom="0"
     inkscape:window-width="1920"
     inkscape:window-height="1057"
     inkscape:window-x="-8"
     inkscape:window-y="-8"
     inkscape:window-maximized="1" />
  <metadata
     id="metadata46904">
    <rdf:RDF>
      <cc:Work
         rdf:about="">
        <dc:format>image/svg+xml</dc:format>
        <dc:type
           rdf:resource="http://purl.org/dc/dcmitype/StillImage" />
        <dc:title></dc:title>
      </cc:Work>
    </rdf:RDF>
  </metadata>
  <g
     inkscape:label="Layer 1"
     inkscape:groupmode="layer"
     id="layer1"
     transform="translate(-19.493501,-6.5184693)">
    <g
       transform="matrix(0.26458333,0,0,0.26458333,-45.603723,-95.733976)"
       id="layer1-2"
       inkscape:label="Layer 1">
      <g
         transform="translate(-588.57142,240.45742)"
         id="layer1-7"
         inkscape:label="Layer 1">
        <g
           transform="matrix(1.25,0,0,-1.25,-1908.5912,433.98986)"
           id="g38661">
          <g
             id="g4050">
            <g
               transform="matrix(-1,0,0,1,4567.0227,0)"
               id="g380">
              <g
                 id="g33918"
                 transform="translate(2200.6299,165.2139)">
                <path
                   inkscape:connector-curvature="0"
                   d="M 0,0 C 1.529,-0.416 2.171,0.052 3.405,0.989 4.8,2.03 5.329,2.479 6.938,2.724 9.298,3.155 9.68,2.062 12.456,2.533 c 2.017,0.362 2.932,2.548 8.641,2.421 1.283,-0.035 4.181,-1.859 7.759,-1.235 30.248,5.283 21.133,9.664 31.657,7.929 7.026,-1.154 11.403,-2.764 16.365,1.86 1.667,1.558 5.882,3.744 8.181,4.71 2.556,1.073 5.201,1.247 10.577,1.735 2.342,0.214 5.698,0.981 8.556,-0.74 6.443,-3.904 3.965,-10.54 3.965,-10.54 0,0 -1.826,-6.66 -2.98,-8.363 -2.047,-3.045 -4.55,-4.37 -8.181,-5.518 -5.075,-1.613 -12.271,3.912 -12.271,3.912 -1.253,-0.612 -32.054,-14.641 -35.199,-15.441 -9.303,-2.357 -6.039,1.356 -14.384,1.856 -2.82,0.174 -6.785,-2.088 -8.181,-2.421 -1.935,-0.456 -3.938,-0.581 -5.837,0.125 -1.78,0.677 -3.592,2.157 -4.654,3.71 -0.938,1.357 -2.813,2.97 -4.633,2.814 -5.158,-0.428 -7.001,0.504 -8.494,2.099 -1.795,1.914 -3.713,3.207 -5.578,3.158 -2.481,-0.061 -5.635,2.322 -5.141,4.433 0.408,1.741 1.887,0.189 3.059,0.547 0.81,0.257 1.448,0.69 2.021,0.726 C -1.06,0.388 -0.286,0.075 0,0"
                   style="fill:#141111;fill-opacity:1;fill-rule:nonzero;stroke:none"
                   id="path33920" />
              </g>
              <g
                 id="g33922"
                 transform="translate(2242.877,122.5723)">
                <path
                   inkscape:connector-curvature="0"
                   d="m 0,0 -13.426,0.102 c 0,0 -0.711,-10.498 0,-10.888 1.475,-0.816 2.855,0.009 3.596,1.977 1.008,2.768 6.981,2.638 9.921,1.92 z"
                   style="fill:#141111;fill-opacity:1;fill-rule:nonzero;stroke:none"
                   id="path33924" />
              </g>
              <g
                 id="g33926"
                 transform="translate(2242.877,135.0469)">
                <path
                   inkscape:connector-curvature="0"
                   d="m 0,0 -13.426,0.107 c 0,0 -0.711,-10.508 0,-10.89 1.475,-0.813 2.855,0.012 3.596,1.981 1.008,2.756 6.981,2.634 9.921,1.914 z"
                   style="fill:#141111;fill-opacity:1;fill-rule:nonzero;stroke:none"
                   id="path33928" />
              </g>
              <g
                 id="g33930"
                 transform="translate(2312.4277,156.2061)">
                <path
                   inkscape:connector-curvature="0"
                   d="M 0,0 5.014,-0.521 9.367,0.003 C 10.113,0.09 10.378,-0.647 9.721,-1.11 9.742,-1.125 7.893,-2.108 7.893,-2.108 l 4.389,-0.787 c 0,0 0.942,-0.858 -0.529,-1.165 -1.384,0.33 -2.945,0.437 -2.945,0.437 l 2.884,-0.689 c 0,0 1.375,-0.781 -0.238,-1.561 l -3.08,0.836 2.819,-1.293 c 0.935,-1.11 -0.58,-1.466 -0.58,-1.466 l -2.699,1.361 2.455,-1.76 C 10.985,-9.071 9.788,-9.228 9.788,-9.228 L 4.956,-6.94 0.797,-5.497 Z"
                   style="fill:#ffffff;fill-opacity:1;fill-rule:nonzero;stroke:none"
                   id="path33932" />
              </g>
              <g
                 id="g33934"
                 transform="translate(2312.4277,156.2061)">
                <path
                   inkscape:connector-curvature="0"
                   d="M 0,0 5.014,-0.521 9.367,0.003 C 10.113,0.09 10.378,-0.647 9.721,-1.11 9.742,-1.125 7.893,-2.108 7.893,-2.108 l 4.389,-0.787 c 0,0 0.942,-0.858 -0.529,-1.165 -1.384,0.33 -2.945,0.437 -2.945,0.437 l 2.884,-0.689 c 0,0 1.375,-0.781 -0.238,-1.561 l -3.08,0.836 2.819,-1.293 c 0.935,-1.11 -0.58,-1.466 -0.58,-1.466 l -2.699,1.361 2.455,-1.76 C 10.985,-9.071 9.788,-9.228 9.788,-9.228 L 4.956,-6.94 0.797,-5.497 Z"
                   style="fill:none;stroke:#141111;stroke-width:0.55800003;stroke-linecap:butt;stroke-linejoin:miter;stroke-miterlimit:10;stroke-dasharray:none;stroke-opacity:1"
                   id="path33936" />
              </g>
              <g
                 id="g33938"
                 transform="translate(2310.7305,145.1973)">
                <path
                   inkscape:connector-curvature="0"
                   d="m 0,0 c 4.024,0.018 5.383,13.586 2.251,15.028 -3.114,1.447 -20.452,0.226 -20.452,0.226 0,0 -0.49,-15.375 18.201,-15.254"
                   style="fill:#ffffff;fill-opacity:1;fill-rule:nonzero;stroke:none"
                   id="path33940" />
              </g>
              <g
                 id="g33942"
                 transform="translate(2310.7305,145.1973)">
                <path
                   inkscape:connector-curvature="0"
                   d="m 0,0 c 4.024,0.018 5.383,13.586 2.251,15.028 -3.114,1.447 -20.452,0.226 -20.452,0.226 0,0 -0.49,-15.375 18.201,-15.254 z"
                   style="fill:none;stroke:#141111;stroke-width:0.55800003;stroke-linecap:butt;stroke-linejoin:miter;stroke-miterlimit:10;stroke-dasharray:none;stroke-opacity:1"
                   id="path33944" />
              </g>
              <g
                 id="g33946"
                 transform="translate(2317.959,140.7842)">
                <path
                   inkscape:connector-curvature="0"
                   d="m 0,0 c -0.022,2.224 -0.005,6.719 0.466,8.138 0.941,2.869 4.958,3.314 5.366,2.738 C 6.678,9.635 7.436,7.574 7.917,6.087 Z M 33.798,-0.35 30.174,-3.62 15.153,-7.729 22.705,2.652 14.264,10.966 10.649,8.188 C 10.19,9.417 9.555,11.064 8.838,12.771 7.085,16.958 -2.328,13.244 -2.9,9.696 -3.338,7.029 -3.574,0.203 -3.66,-2.813 l -4.051,-3.115 c 0,0 -0.151,-4.049 4.819,-9.028 5.01,-4.965 9.77,-3.666 9.77,-3.666 l 4.436,5.332 18.718,7.631 3.938,-3.849 c 0,0 1.748,1.195 1.55,4.447 -0.184,3.271 -1.722,4.711 -1.722,4.711"
                   style="fill:#141111;fill-opacity:1;fill-rule:nonzero;stroke:none"
                   id="path33948" />
              </g>
              <g
                 id="g33950"
                 transform="translate(2242.3818,157.0244)">
                <path
                   inkscape:connector-curvature="0"
                   d="m 0,0 v -44.455 c 0,0 18.843,-1.65 35.452,11.113 12.31,9.465 23.592,25.983 24.39,40.097 0.903,16.101 -1.408,17.732 -1.408,17.732 0,0 -13.061,-16.292 -28.248,-23.324 C 22.035,-2.611 6.72,-1.935 0,0"
                   style="fill:#ffffff;fill-opacity:1;fill-rule:nonzero;stroke:none"
                   id="path33952" />
              </g>
              <g
                 id="g33954"
                 transform="translate(2242.3818,157.0244)">
                <path
                   inkscape:connector-curvature="0"
                   d="m 0,0 v -44.455 c 0,0 18.843,-1.65 35.452,11.113 12.31,9.465 23.592,25.983 24.39,40.097 0.903,16.101 -1.408,17.732 -1.408,17.732 0,0 -13.061,-16.292 -28.248,-23.324 C 22.035,-2.611 6.72,-1.935 0,0 Z"
                   style="fill:none;stroke:#141111;stroke-width:0.55800003;stroke-linecap:butt;stroke-linejoin:miter;stroke-miterlimit:10;stroke-dasharray:none;stroke-opacity:1"
                   id="path33956" />
              </g>
              <g
                 id="g33958"
                 transform="translate(2307.6777,170.376)">
                <path
                   inkscape:connector-curvature="0"
                   d="M 0,0 C 0.658,6.896 -4.391,13.013 -11.288,13.681 -18.172,14.34 -24.292,9.291 -24.96,2.399 -25.618,-4.488 -20.51,-9.534 -13.621,-10.202 -6.732,-10.855 -0.67,-6.889 0,0"
                   style="fill:#ffffff;fill-opacity:1;fill-rule:nonzero;stroke:none"
                   id="path33960" />
              </g>
              <g
                 id="g33962"
                 transform="translate(2307.6777,170.376)">
                <path
                   inkscape:connector-curvature="0"
                   d="M 0,0 C 0.658,6.896 -4.391,13.013 -11.288,13.681 -18.172,14.34 -24.292,9.291 -24.96,2.399 -25.618,-4.488 -20.51,-9.534 -13.621,-10.202 -6.732,-10.855 -0.67,-6.889 0,0 Z"
                   style="fill:none;stroke:#141111;stroke-width:0.63300002;stroke-linecap:butt;stroke-linejoin:miter;stroke-miterlimit:10;stroke-dasharray:none;stroke-opacity:1"
                   id="path33964" />
              </g>
              <g
                 id="g33966"
                 transform="translate(2282.5801,174.2539)">
                <path
                   inkscape:connector-curvature="0"
                   d="M 0,0 C 0.125,-0.009 0.26,0.092 0.391,0.061 1.744,6.142 7.443,10.419 13.81,9.803 19.553,9.253 23.994,4.918 24.953,-0.498 h 0.082 c 1.48,-0.145 2.569,-1.466 2.431,-2.949 -0.14,-1.42 -1.346,-2.461 -2.755,-2.438 -1.536,-5.631 -7.045,-8.779 -13.234,-8.195 -5.367,0.52 -9.637,3.704 -10.956,8.334 -0.349,-0.093 -0.744,-0.049 -1.12,-0.018 -1.658,0.165 -2.515,1.895 -2.326,3.141 C -2.742,-1.365 -1.654,0.156 0,0"
                   style="fill:#ffffff;fill-opacity:1;fill-rule:nonzero;stroke:none"
                   id="path33968" />
              </g>
              <g
                 id="g33970"
                 transform="translate(2282.5801,174.2539)">
                <path
                   inkscape:connector-curvature="0"
                   d="M 0,0 C 0.125,-0.009 0.26,0.092 0.391,0.061 1.744,6.142 7.443,10.419 13.81,9.803 19.553,9.253 23.994,4.918 24.953,-0.498 h 0.082 c 1.48,-0.145 2.569,-1.466 2.431,-2.949 -0.14,-1.42 -1.346,-2.461 -2.755,-2.438 -1.536,-5.631 -7.045,-8.779 -13.234,-8.195 -5.367,0.52 -9.637,3.704 -10.956,8.334 -0.349,-0.093 -0.744,-0.049 -1.12,-0.018 -1.658,0.165 -2.515,1.895 -2.326,3.141 C -2.742,-1.365 -1.654,0.156 0,0 Z"
                   style="fill:none;stroke:#141111;stroke-width:0.63300002;stroke-linecap:butt;stroke-linejoin:round;stroke-miterlimit:10;stroke-dasharray:none;stroke-opacity:1"
                   id="path33972" />
              </g>
              <g
                 id="g33974"
                 transform="translate(2301.8047,165.584)">
                <path
                   inkscape:connector-curvature="0"
                   d="m 0,0 c -0.504,-0.798 -1.468,-1.691 -3.225,-1.532 -1.509,0.144 -2.247,0.867 -2.62,1.575"
                   style="fill:none;stroke:#141111;stroke-width:0.63300002;stroke-linecap:butt;stroke-linejoin:round;stroke-miterlimit:10;stroke-dasharray:none;stroke-opacity:1"
                   id="path33976" />
              </g>
              <g
                 id="g33978"
                 transform="translate(2304.4336,171.4687)">
                <path
                   inkscape:connector-curvature="0"
                   d="M 0,0 C 0.072,0.7 -0.435,1.311 -1.125,1.379 -1.832,1.457 -2.457,0.942 -2.505,0.243 -2.586,-0.445 -2.075,-1.062 -1.386,-1.128 -0.679,-1.2 -0.062,-0.688 0,0"
                   style="fill:#141111;fill-opacity:1;fill-rule:nonzero;stroke:none"
                   id="path33980" />
              </g>
              <g
                 id="g33982"
                 transform="translate(2273.6914,141.4844)">
                <path
                   inkscape:connector-curvature="0"
                   d="m 0,0 1.019,-4.945 1.817,-3.991 c 0.318,-0.682 -0.312,-1.16 -0.949,-0.682 -0.009,-0.027 -1.5,1.455 -1.5,1.455 l 0.576,-4.431 c 0,0 -0.538,-1.148 -1.275,0.156 -0.104,1.42 -0.465,2.942 -0.465,2.942 l 0.209,-2.962 c 0,0 -0.328,-1.541 -1.562,-0.239 l -0.14,3.183 -0.373,-3.089 c -0.775,-1.206 -1.572,0.12 -1.572,0.12 l 0.477,2.992 -0.937,-2.871 c -0.643,-0.859 -1.151,0.228 -1.151,0.228 l 0.712,5.301 0.122,4.403 z"
                   style="fill:#ffffff;fill-opacity:1;fill-rule:nonzero;stroke:none"
                   id="path33984" />
              </g>
              <g
                 id="g33986"
                 transform="translate(2273.6914,141.4844)">
                <path
                   inkscape:connector-curvature="0"
                   d="m 0,0 1.019,-4.945 1.817,-3.991 c 0.318,-0.682 -0.312,-1.16 -0.949,-0.682 -0.009,-0.027 -1.5,1.455 -1.5,1.455 l 0.576,-4.431 c 0,0 -0.538,-1.148 -1.275,0.156 -0.104,1.42 -0.465,2.942 -0.465,2.942 l 0.209,-2.962 c 0,0 -0.328,-1.541 -1.562,-0.239 l -0.14,3.183 -0.373,-3.089 c -0.775,-1.206 -1.572,0.12 -1.572,0.12 l 0.477,2.992 -0.937,-2.871 c -0.643,-0.859 -1.151,0.228 -1.151,0.228 l 0.712,5.301 0.122,4.403 z"
                   style="fill:none;stroke:#141111;stroke-width:0.55800003;stroke-linecap:butt;stroke-linejoin:miter;stroke-miterlimit:10;stroke-dasharray:none;stroke-opacity:1"
                   id="path33988" />
              </g>
              <g
                 id="g33990"
                 transform="translate(2295.6309,171.3037)">
                <path
                   inkscape:connector-curvature="0"
                   d="m 0,0 c 0.058,0.694 -0.445,1.311 -1.14,1.389 -0.708,0.066 -1.311,-0.454 -1.389,-1.14 -0.065,-0.7 0.442,-1.315 1.133,-1.377 C -0.689,-1.2 -0.074,-0.68 0,0"
                   style="fill:#141111;fill-opacity:1;fill-rule:nonzero;stroke:none"
                   id="path33992" />
              </g>
              <g
                 id="g33994"
                 transform="translate(2263.043,140.9814)">
                <path
                   inkscape:connector-curvature="0"
                   d="M 0,0 C 0.407,-3.991 14.037,-4.061 15.181,-0.824 16.33,2.423 13.477,19.571 13.477,19.571 13.477,19.571 -1.882,18.6 0,0"
                   style="fill:#ffffff;fill-opacity:1;fill-rule:nonzero;stroke:none"
                   id="path33996" />
              </g>
              <g
                 id="g33998"
                 transform="translate(2263.043,140.9814)">
                <path
                   inkscape:connector-curvature="0"
                   d="M 0,0 C 0.407,-3.991 14.037,-4.061 15.181,-0.824 16.33,2.423 13.477,19.571 13.477,19.571 13.477,19.571 -1.882,18.6 0,0 Z"
                   style="fill:none;stroke:#141111;stroke-width:0.55800003;stroke-linecap:butt;stroke-linejoin:miter;stroke-miterlimit:10;stroke-dasharray:none;stroke-opacity:1"
                   id="path34000" />
              </g>
              <g
                 id="g34002"
                 transform="translate(2265.5234,226.8223)">
                <path
                   inkscape:connector-curvature="0"
                   d="m 0,0 c 12.784,-6.052 16.353,-15.985 18.263,-22.104 3.629,-11.623 2.394,-16.619 2.394,-21.33 0,0 1.655,1.163 7.442,1.568 5.73,0.416 9.2,-0.18 9.2,-0.18 0,0 -1.956,8.328 -6.065,16.379 C 19.705,-3.103 -0.209,2.334 -0.209,2.334 -3.522,3.543 -6.429,3.95 -7.729,1.4 c -1.155,-2.267 0.985,-4.876 2.684,-5.035 1.338,-0.13 3.093,1.408 1.696,2.719 0,-0.905 -0.788,-1.027 -1.197,-1.07 C -5.219,-2.053 -5.665,-1.075 -5.46,-0.37 -5.058,1.001 -3.065,1.443 0,0"
                   style="fill:#ffffff;fill-opacity:1;fill-rule:nonzero;stroke:none"
                   id="path34004" />
              </g>
              <g
                 id="g34006"
                 transform="translate(2265.5234,226.8223)">
                <path
                   inkscape:connector-curvature="0"
                   d="m 0,0 c 12.784,-6.052 16.353,-15.985 18.263,-22.104 3.629,-11.623 2.394,-16.619 2.394,-21.33 0,0 1.655,1.163 7.442,1.568 5.73,0.416 9.2,-0.18 9.2,-0.18 0,0 -1.956,8.328 -6.065,16.379 C 19.705,-3.103 -0.209,2.334 -0.209,2.334 -3.522,3.543 -6.429,3.95 -7.729,1.4 c -1.155,-2.267 0.985,-4.876 2.684,-5.035 1.338,-0.13 3.093,1.408 1.696,2.719 0,-0.905 -0.788,-1.027 -1.197,-1.07 C -5.219,-2.053 -5.665,-1.075 -5.46,-0.37 -5.058,1.001 -3.065,1.443 0,0 Z"
                   style="fill:none;stroke:#141111;stroke-width:0.55800003;stroke-linecap:butt;stroke-linejoin:round;stroke-miterlimit:10;stroke-dasharray:none;stroke-opacity:1"
                   id="path34008" />
              </g>
              <g
                 id="g34010"
                 transform="translate(2282.3877,173.6895)">
                <path
                   inkscape:connector-curvature="0"
                   d="m 0,0 c 0,0 7.31,-1.51 12.657,0.267 5.346,1.778 8.715,7.428 8.715,7.428 0,0 -6.567,5.02 -14.623,0.873 C 0.434,5.31 0,0 0,0"
                   style="fill:#141111;fill-opacity:1;fill-rule:nonzero;stroke:none"
                   id="path34012" />
              </g>
              <g
                 id="g34014"
                 transform="translate(2308.166,173.2295)">
                <path
                   inkscape:connector-curvature="0"
                   d="m 0,0 c 0,0 -4.045,-0.416 -6.614,1.567 -2.56,1.979 -3.97,5.536 -3.97,5.536 0,0 4.043,3.204 7.279,1.24 C 1.735,5.289 0,0 0,0"
                   style="fill:#141111;fill-opacity:1;fill-rule:nonzero;stroke:none"
                   id="path34016" />
              </g>
              <g
                 id="g34018"
                 transform="translate(2227.124,179.3545)">
                <path
                   inkscape:connector-curvature="0"
                   d="M 0,0 C 0.919,1.498 2.681,2.027 4.312,1.892 3.764,2.854 4.24,4.907 4.604,5.439 c 1.408,2.091 3.965,2.759 6.083,1.438 0,0 -1.05,4.311 3.648,6.361 5.66,2.479 10.734,-5.395 10.734,-5.395 0,0 8.811,-13.231 20.04,-18.603 1.958,-0.937 7.474,-3.262 7.474,-3.262 -1.083,-0.616 -2.38,-1.307 -3.933,-2.082 -8.165,-4.066 -22.6,-6.437 -31.77,-2.394 C 7.013,-14.126 1.776,-6.697 1.364,-6.145 0.055,-4.39 -1.294,-2.082 0,0"
                   style="fill:#ffffff;fill-opacity:1;fill-rule:nonzero;stroke:none"
                   id="path34020" />
              </g>
              <g
                 id="g34022"
                 transform="translate(2227.124,179.3545)">
                <path
                   inkscape:connector-curvature="0"
                   d="M 0,0 C 0.919,1.498 2.681,2.027 4.312,1.892 3.764,2.854 4.24,4.907 4.604,5.439 c 1.408,2.091 3.965,2.759 6.083,1.438 0,0 -1.05,4.311 3.648,6.361 5.66,2.479 10.734,-5.395 10.734,-5.395 0,0 8.811,-13.231 20.04,-18.603 1.958,-0.937 7.474,-3.262 7.474,-3.262 -1.083,-0.616 -2.38,-1.307 -3.933,-2.082 -8.165,-4.066 -22.6,-6.437 -31.77,-2.394 C 7.013,-14.126 1.776,-6.697 1.364,-6.145 0.055,-4.39 -1.294,-2.082 0,0 Z"
                   style="fill:none;stroke:#141111;stroke-width:0.55800003;stroke-linecap:butt;stroke-linejoin:round;stroke-miterlimit:10;stroke-dasharray:none;stroke-opacity:1"
                   id="path34024" />
              </g>
              <g
                 id="g34026"
                 transform="translate(2237.8105,186.2314)">
                <path
                   inkscape:connector-curvature="0"
                   d="M 0,0 C 0,0 7.725,-12.562 18.35,-17.038"
                   style="fill:none;stroke:#141111;stroke-width:0.55800003;stroke-linecap:butt;stroke-linejoin:round;stroke-miterlimit:10;stroke-dasharray:none;stroke-opacity:1"
                   id="path34028" />
              </g>
              <g
                 id="g34030"
                 transform="translate(2231.4355,181.2461)">
                <path
                   inkscape:connector-curvature="0"
                   d="M 0,0 C 0,0 3.271,-6.272 11.779,-11.281"
                   style="fill:none;stroke:#141111;stroke-width:0.55800003;stroke-linecap:butt;stroke-linejoin:round;stroke-miterlimit:10;stroke-dasharray:none;stroke-opacity:1"
                   id="path34032" />
              </g>
              <g
                 id="g34042"
                 transform="translate(2369.4482,124.1426)">
                <path
                   inkscape:connector-curvature="0"
                   d="M 0,0 C 0,0 -2.056,2.987 -2.29,2.943 -2.524,2.9 -2.546,-0.856 -2.546,-0.856 c 0,0 -3.848,-0.57 -3.808,-0.925 0.031,-0.356 3.257,-1.125 3.257,-1.125 0,0 0.196,-3.812 0.573,-3.855 0.382,-0.026 2.212,2.993 2.212,2.993 0,0 2.902,-1.203 3.083,-1.082 0.201,0.127 -1.604,2.886 -1.604,2.886 0,0 1.826,2.114 1.848,2.409 C 3.015,0.737 0,0 0,0"
                   style="fill:#ffffff;fill-opacity:1;fill-rule:nonzero;stroke:none"
                   id="path34044" />
              </g>
              <path
                 transform="matrix(0.8,0,0,-0.8,2168.8652,238.39216)"
                 style="opacity:1;fill:#ff6600;fill-opacity:1;stroke:none;stroke-width:0.2024747;stroke-miterlimit:4;stroke-dasharray:none;stroke-opacity:1"
                 d="M 103.60558,99.028138 C 99.59388,98.572633 96.105483,97.617967 92.891294,96.095965 86.159031,92.908067 79.514585,87.55019 75.166373,81.803135 c -2.447513,-3.234891 -3.148886,-5.368897 -2.364126,-7.19312 0.703208,-1.634649 2.150962,-2.63062 4.123608,-2.836803 l 1.012489,-0.105826 0.903385,1.33876 c 1.446194,2.143165 2.886019,3.83629 5.057282,5.94698 2.467192,2.39836 4.000086,3.642985 6.726372,5.461441 1.711284,1.141441 2.109983,1.340594 2.23535,1.116575 0.08392,-0.149959 0.125129,-0.292832 0.09157,-0.3175 -0.03355,-0.02467 -0.864582,-0.567216 -1.846725,-1.205664 -4.354447,-2.830638 -8.418206,-6.657493 -11.253755,-10.5977 -1.492549,-2.074009 -1.760335,-2.75382 -1.610698,-4.08898 0.163638,-1.460094 0.598605,-2.37848 1.519343,-3.207926 1.569004,-1.413438 3.665386,-1.823491 5.391444,-1.054567 0.696226,0.310154 1.006056,0.629446 1.898024,1.955993 3.269819,4.862917 8.521317,10.65616 12.75907,14.075292 3.382434,2.729034 8.912064,5.980661 9.247514,5.43788 0.11451,-0.185273 -0.37044,-0.517482 -1.99799,-1.368717 -4.11625,-2.152865 -7.664354,-4.898513 -11.773191,-9.110527 -2.780609,-2.850432 -5.704166,-6.384596 -7.674224,-9.277044 -1.185565,-1.74065 -1.23768,-1.861472 -1.23768,-2.869374 0,-2.167345 0.947098,-4.024729 2.716397,-5.327212 1.544671,-1.137123 2.79078,-1.567508 4.515746,-1.559663 3.624782,0.01649 6.950692,2.489441 11.122212,8.269845 4.7626,6.599449 10.98931,13.155962 16.4091,17.278228 3.75166,2.853497 7.05732,4.672373 13.40619,7.376507 1.6942,0.721598 3.08036,1.368816 3.08036,1.438263 0,0.194898 -4.15335,2.345694 -6.25,3.236537 -4.51713,1.919275 -10.04763,3.383329 -15.71429,4.159936 -2.42461,0.332291 -9.96299,0.490761 -12.05357,0.253389 z"
                 id="path298"
                 inkscape:connector-curvature="0" />
              <path
                 style="opacity:1;fill:#ff6600;fill-opacity:1;stroke:none;stroke-width:0.32395953;stroke-miterlimit:4;stroke-dasharray:none;stroke-opacity:1"
                 d="m 2366.9959,117.73058 c -0.1048,0.10476 -0.1925,0.77976 -0.1949,1.5 -0.01,1.66425 -0.1587,1.8814 -1.6385,2.32317 -0.6678,0.19938 -1.2142,0.46094 -1.2142,0.58122 0,0.12028 0.6734,0.32588 1.4965,0.4569 0.9832,0.1565 1.5159,0.38447 1.5532,0.66465 0.031,0.23454 0.1382,1.04399 0.2376,1.79877 l 0.1808,1.37232 1.0142,-1.32824 c 0.9971,-1.30589 1.0352,-1.32508 2.2659,-1.14053 1.3002,0.19497 1.5933,-0.0654 0.8076,-0.71739 -0.977,-0.81087 -1.039,-1.36568 -0.2775,-2.48632 0.8405,-1.23684 0.5857,-1.45131 -0.9799,-0.82487 l -1.1105,0.44434 -0.9095,-1.41725 c -0.9866,-1.53751 -0.9533,-1.5043 -1.2308,-1.22677 z"
                 id="path302"
                 inkscape:connector-curvature="0" />
              <path
                 style="opacity:1;fill:#ff6600;fill-opacity:1;stroke:none;stroke-width:0.32395953;stroke-miterlimit:4;stroke-dasharray:none;stroke-opacity:1"
                 d="m 2366.4582,111.77534 c 0.1839,1.3369 0.1487,1.45676 -0.5362,1.82329 -1.0723,0.57389 -0.8981,0.81489 0.4812,0.66539 1.1802,-0.12792 1.2272,-0.10089 1.6747,0.96367 l 0.4603,1.09529 0.3339,-0.85715 c 0.1835,-0.47142 0.3902,-1.01785 0.4592,-1.21429 0.069,-0.19642 0.5473,-0.35777 1.0629,-0.35856 l 0.9376,-0.002 -0.8311,-0.66495 c -0.7052,-0.56432 -0.8036,-0.8019 -0.65,-1.57001 0.2123,-1.0612 0.037,-1.1246 -0.837,-0.30328 l -0.6405,0.60176 -1.0559,-0.80536 -1.0559,-0.80536 z"
                 id="path304"
                 inkscape:connector-curvature="0" />
              <path
                 inkscape:transform-center-y="-0.035575403"
                 inkscape:transform-center-x="4.8225517"
                 style="opacity:1;fill:#ff6600;fill-opacity:1;stroke:none;stroke-width:0.32395953;stroke-miterlimit:4;stroke-dasharray:none;stroke-opacity:1"
                 d="m 2361.2702,128.81252 c -0.5206,1.02142 -0.9813,1.89648 -1.0239,1.94458 -0.043,0.0481 -0.8309,-0.0992 -1.7519,-0.32731 -2.9594,-0.73304 -3.2459,-0.77672 -3.2459,-0.49499 0,0.15181 0.6429,1.12536 1.4286,2.16343 0.7857,1.03807 1.4286,1.95765 1.4286,2.04349 0,0.0858 -0.4695,0.91671 -1.0433,1.84635 -0.5738,0.92964 -0.9638,1.76977 -0.8666,1.86695 0.097,0.0972 1.0713,-0.35477 2.1647,-1.00434 1.0934,-0.64956 2.0495,-1.18102 2.1248,-1.18102 0.075,0 0.9308,0.80357 1.9011,1.78571 l 1.7643,1.78571 -0.1795,-2.57142 -0.1796,-2.57143 1.6237,-0.96735 c 1.8235,-1.08643 1.7425,-1.27522 -0.6871,-1.6018 -0.8362,-0.11239 -1.5667,-0.35174 -1.6233,-0.53188 -0.057,-0.18015 -0.2797,-1.16326 -0.4956,-2.18468 l -0.3925,-1.85715 z"
                 id="path300-3"
                 inkscape:connector-curvature="0" />
              <path
                 inkscape:connector-curvature="0"
                 id="path4618"
                 d="m 2261.0874,176.96935 -10.2026,11.8693"
                 style="fill:none;stroke:#ffffff;stroke-width:0.80000001px;stroke-linecap:butt;stroke-linejoin:miter;stroke-opacity:0" />
            </g>
          </g>
        </g>
      </g>
    </g>
  </g>
</svg>
