<?xml version="1.0" encoding="UTF-8" standalone="no"?>
<!-- Created with Inkscape (http://www.inkscape.org/) -->

<svg
   xmlns:dc="http://purl.org/dc/elements/1.1/"
   xmlns:cc="http://creativecommons.org/ns#"
   xmlns:rdf="http://www.w3.org/1999/02/22-rdf-syntax-ns#"
   xmlns:svg="http://www.w3.org/2000/svg"
   xmlns="http://www.w3.org/2000/svg"
   xmlns:xlink="http://www.w3.org/1999/xlink"
   xmlns:sodipodi="http://sodipodi.sourceforge.net/DTD/sodipodi-0.dtd"
   xmlns:inkscape="http://www.inkscape.org/namespaces/inkscape"
   width="73.398079mm"
   height="66.180023mm"
   viewBox="0 0 73.398079 66.180022"
   version="1.1"
   id="svg6661"
   inkscape:version="0.92.3 (2405546, 2018-03-11)"
   sodipodi:docname="birds.svg">
  <defs
     id="defs6655">
    <pattern
       inkscape:collect="always"
       xlink:href="#pattern4062"
       id="pattern9085"
       patternTransform="matrix(0.57213852,0,0,-0.57213852,891.25861,1915.0837)" />
    <pattern
       patternTransform="matrix(1.62181,0,0,1.62181,2288.2753,-5185.8629)"
       patternUnits="userSpaceOnUse"
       x="0"
       y="0"
       width="20.249"
       height="20.249"
       id="pattern4062">
      <path
         d="m 40.496,0 -20.248,0 0,5.062 20.248,0 0,-5.062 z"
         style="fill:#ffffff;fill-opacity:1;fill-rule:nonzero;stroke:none"
         id="path4054" />
      <path
         d="m 40.496,10.124 -20.248,0 0,5.061 20.248,0 0,-5.061 z"
         style="fill:#ffffff;fill-opacity:1;fill-rule:nonzero;stroke:none"
         id="path4056" />
      <path
         d="m 20.247,0 -20.248,0 0,5.062 20.248,0 0,-5.062 z"
         style="fill:#ffffff;fill-opacity:1;fill-rule:nonzero;stroke:none"
         id="path4058" />
      <path
         d="m 20.247,10.124 -20.248,0 0,5.061 20.248,0 0,-5.061 z"
         style="fill:#ffffff;fill-opacity:1;fill-rule:nonzero;stroke:none"
         id="path4060" />
    </pattern>
  </defs>
  <sodipodi:namedview
     id="base"
     pagecolor="#ffffff"
     bordercolor="#666666"
     borderopacity="1.0"
     inkscape:pageopacity="0.0"
     inkscape:pageshadow="2"
     inkscape:zoom="0.98994949"
     inkscape:cx="-259.95919"
     inkscape:cy="-51.234549"
     inkscape:document-units="mm"
     inkscape:current-layer="g7003"
     showgrid="false"
     fit-margin-top="0"
     fit-margin-left="0"
     fit-margin-right="0"
     fit-margin-bottom="0"
     inkscape:window-width="1920"
     inkscape:window-height="1057"
     inkscape:window-x="-8"
     inkscape:window-y="-8"
     inkscape:window-maximized="1" />
  <metadata
     id="metadata6658">
    <rdf:RDF>
      <cc:Work
         rdf:about="">
        <dc:format>image/svg+xml</dc:format>
        <dc:type
           rdf:resource="http://purl.org/dc/dcmitype/StillImage" />
        <dc:title></dc:title>
      </cc:Work>
    </rdf:RDF>
  </metadata>
  <g
     inkscape:label="Layer 1"
     inkscape:groupmode="layer"
     id="layer1"
     transform="translate(-37.195591,-43.843436)">
    <g
       id="g6923">
      <g
         id="g7003">
        <g
           id="g9156">
          <path
             d="m 57.122147,104.18082 -0.764117,4.15925 0.303036,1.55363"
             style="fill:none;stroke:#1c1c21;stroke-width:0.26105556;stroke-linecap:butt;stroke-linejoin:miter;stroke-miterlimit:10;stroke-dasharray:none;stroke-opacity:1"
             id="path3958"
             inkscape:connector-curvature="0" />
          <path
             d="m 53.526487,105.07549 -0.918281,3.00355 0.0702,1.79917"
             style="fill:none;stroke:#1c1c21;stroke-width:0.26105556;stroke-linecap:butt;stroke-linejoin:miter;stroke-miterlimit:10;stroke-dasharray:none;stroke-opacity:1"
             id="path3962"
             inkscape:connector-curvature="0" />
          <path
             d="m 55.274907,109.85109 1.219906,-1.89406 1.311627,1.69756"
             style="fill:none;stroke:#1c1c21;stroke-width:0.26105556;stroke-linecap:butt;stroke-linejoin:miter;stroke-miterlimit:10;stroke-dasharray:none;stroke-opacity:1"
             id="path3966"
             inkscape:connector-curvature="0" />
          <path
             d="m 51.392617,109.93289 1.217789,-1.89018 1.313391,1.69262"
             style="fill:none;stroke:#1c1c21;stroke-width:0.26105556;stroke-linecap:butt;stroke-linejoin:miter;stroke-miterlimit:10;stroke-dasharray:none;stroke-opacity:1"
             id="path3970"
             inkscape:connector-curvature="0" />
          <path
             d="m 60.062537,82.68721 1.502128,-2.919236 0.08396,2.417939 2.000603,0.08431 -2.41935,2.337152 z"
             style="fill:#f25c19;fill-opacity:1;fill-rule:nonzero;stroke:none;stroke-width:0.35277778"
             id="path3974"
             inkscape:connector-curvature="0" />
          <path
             d="m 60.062537,82.68721 1.502128,-2.919236 0.08396,2.417939 2.000603,0.08431 -2.41935,2.337152 z"
             style="fill:none;stroke:#1c1c21;stroke-width:0.26105556;stroke-linecap:butt;stroke-linejoin:miter;stroke-miterlimit:10;stroke-dasharray:none;stroke-opacity:1"
             id="path3978"
             inkscape:connector-curvature="0" />
          <path
             sodipodi:nodetypes="cccccccccsc"
             d="m 52.136757,86.52367 c 0.705908,-0.782461 1.656997,-0.533753 2.585861,-3.335514 0.643819,-1.942041 3.253669,-3.087158 5.506861,-1.335264 2.252839,1.752248 2.335389,4.253795 3.171119,5.424311 0.833967,1.166989 3.420181,2.83457 1.667934,8.427861 -1.349728,4.304956 -7.741708,11.203156 -12.514439,9.341906 -1.037167,-0.40288 -3.099858,-2.25002 -4.268964,-1.25166 -1.166989,1.0026 -9.448175,5.47359 -9.448175,5.47359 l -1.469245,-4.03831 c 0,0 10.347331,-2.60227 10.347331,-4.1051 0,-1.499654 1.870428,-11.76337 4.421717,-14.60182"
             style="fill:#b11a2e;fill-opacity:1;fill-rule:nonzero;stroke:none;stroke-width:0.35277778"
             id="path3982"
             inkscape:connector-curvature="0" />
          <path
             sodipodi:nodetypes="cccccccccsc"
             d="m 52.136757,86.52367 c 0.705908,-0.782461 1.656997,-0.533753 2.585861,-3.335514 0.643819,-1.942041 3.253669,-3.087158 5.506861,-1.335264 2.252839,1.752248 2.335389,4.253795 3.171119,5.424311 0.833967,1.166989 3.420181,2.83457 1.667934,8.427861 -1.349728,4.304956 -7.741708,11.203156 -12.514439,9.341906 -1.037167,-0.40288 -3.099858,-2.25002 -4.268964,-1.25166 -1.166989,1.0026 -9.448175,5.47359 -9.448175,5.47359 l -1.469245,-4.03831 c 0,0 10.347331,-2.60227 10.347331,-4.1051 0,-1.499654 1.870428,-11.76337 4.421717,-14.60182 z"
             style="fill:none;stroke:#1c1c21;stroke-width:0.26105556;stroke-linecap:butt;stroke-linejoin:miter;stroke-miterlimit:10;stroke-dasharray:none;stroke-opacity:1"
             id="path3986"
             inkscape:connector-curvature="0" />
          <path
             d="m 53.709787,85.64758 c 0,0 3.337983,-0.417336 4.339872,3.087158 1.000831,3.503789 0.583495,8.178095 -2.3368,10.428111 -2.919236,2.252831 -10.609438,5.156901 -10.609438,5.156901 0,0 -2.73932,1.26929 -1.823156,-0.65123 0.917928,-1.91629 1.836208,-5.449351 2.452511,-6.590587 1.426633,-2.633839 2.721328,-11.679061 7.977011,-11.430353"
             style="fill:#e9677f;fill-opacity:1;fill-rule:nonzero;stroke:none;stroke-width:0.35277778"
             id="path3990"
             inkscape:connector-curvature="0" />
          <path
             d="m 53.709787,85.64758 c 0,0 3.337983,-0.417336 4.339872,3.087158 1.000831,3.503789 0.583495,8.178095 -2.3368,10.428111 -2.919236,2.252831 -10.609438,5.156901 -10.609438,5.156901 0,0 -2.73932,1.26929 -1.823156,-0.65123 0.917928,-1.91629 1.836208,-5.449351 2.452511,-6.590587 1.426633,-2.633839 2.721328,-11.679061 7.977011,-11.430353 z"
             style="fill:none;stroke:#1c1c21;stroke-width:0.26105556;stroke-linecap:butt;stroke-linejoin:miter;stroke-miterlimit:10;stroke-dasharray:none;stroke-opacity:1"
             id="path3994"
             inkscape:connector-curvature="0" />
          <path
             d="m 57.239277,83.80636 c 0,0 0.852311,0.508353 1.271411,0.03634 0.476956,-0.53728 0.334433,-1.3716 0.334433,-1.3716 l -0.329494,0.222956 c 0,0 0.02222,0.823383 -0.332317,0.973314 -0.354894,0.149577 -0.68968,-0.0441 -0.68968,-0.0441 z"
             style="fill:#1c1c21;fill-opacity:1;fill-rule:nonzero;stroke:none;stroke-width:0.35277778"
             id="path3998"
             inkscape:connector-curvature="0" />
          <path
             d="m 63.139007,87.16773 c -0.01799,-0.02575 -0.03281,-0.05503 -0.05115,-0.08043 0.04727,0.764116 -0.193675,2.633133 -1.830916,2.717094 -2.099028,0.106539 -2.730148,7.556853 -2.046111,9.970911 0.263525,0.933085 0.328436,2.396765 0.781402,2.807395 2.178756,-1.83621 4.374445,-5.048945 4.983692,-6.898559 1.833739,-5.566833 -1.002595,-7.349419 -1.836914,-8.516408"
             style="fill:#efaabe;fill-opacity:1;fill-rule:nonzero;stroke:none;stroke-width:0.35277778"
             id="path4002"
             inkscape:connector-curvature="0" />
          <path
             d="m 53.453827,85.14117 c -1.048103,1.817864 -2.823986,-1.254478 -0.724606,-1.254478 -2.09938,0 -0.323497,-3.072341 0.724606,-1.254478 -1.048103,-1.817863 2.499783,-1.817863 1.449917,0 1.049866,-1.817863 2.821516,1.254478 0.722136,1.254478 2.09938,0 0.32773,3.072342 -0.722136,1.254478 1.049866,1.817864 -2.49802,1.817864 -1.449917,0"
             style="fill:#fcd996;fill-opacity:1;fill-rule:nonzero;stroke:none;stroke-width:0.35277778"
             id="path4006"
             inkscape:connector-curvature="0" />
          <path
             d="m 53.453827,85.14117 c -1.048103,1.817864 -2.97568,-0.888647 -0.724606,-1.254478 -2.227086,-0.321733 -0.323497,-3.072341 0.724606,-1.254478 -1.048103,-1.817863 2.499783,-1.817863 1.449917,0 1.594555,-1.730374 2.821516,1.254478 0.722136,1.254478 2.09938,0 0.32773,3.072342 -0.722136,1.254478 0.585258,1.916642 -2.218267,1.825625 -1.449917,0"
             style="fill:#ffffff;fill-opacity:1;fill-rule:nonzero;stroke:none;stroke-width:0.35277778"
             id="path4010"
             inkscape:connector-curvature="0" />
          <path
             d="m 53.453827,85.14117 c -1.048103,1.817864 -2.97568,-0.888647 -0.724606,-1.254478 -2.227086,-0.321733 -0.323497,-3.072341 0.724606,-1.254478 -1.048103,-1.817863 2.499783,-1.817863 1.449917,0 1.594555,-1.730374 2.821516,1.254478 0.722136,1.254478 2.09938,0 0.32773,3.072342 -0.722136,1.254478 0.585258,1.916642 -2.218267,1.825625 -1.449917,0 z"
             style="fill:none;stroke:#1c1c21;stroke-width:0.26105556;stroke-linecap:butt;stroke-linejoin:miter;stroke-miterlimit:10;stroke-dasharray:none;stroke-opacity:1"
             id="path4014"
             inkscape:connector-curvature="0" />
          <path
             d="m 53.471737,83.89025 c 0,-0.434622 0.351367,-0.786342 0.786342,-0.786342 0.43568,0 0.786694,0.35172 0.786694,0.786342 0,0.435681 -0.351014,0.786342 -0.786694,0.786342 -0.434975,0 -0.786342,-0.350661 -0.786342,-0.786342"
             style="fill:#f9ab25;fill-opacity:1;fill-rule:nonzero;stroke:none;stroke-width:0.35277778"
             id="path4018"
             inkscape:connector-curvature="0" />
          <path
             d="m 80.260464,103.18753 0.912283,4.15925 -0.797277,2.38689"
             style="fill:none;stroke:#1c1c21;stroke-width:0.26105556;stroke-linecap:butt;stroke-linejoin:miter;stroke-miterlimit:10;stroke-dasharray:none;stroke-opacity:1"
             id="path4022"
             inkscape:connector-curvature="0" />
          <path
             d="m 84.561974,104.51113 1.097139,3.00602 -0.105833,2.42993"
             style="fill:none;stroke:#1c1c21;stroke-width:0.26105556;stroke-linecap:butt;stroke-linejoin:miter;stroke-miterlimit:10;stroke-dasharray:none;stroke-opacity:1"
             id="path4026"
             inkscape:connector-curvature="0" />
          <path
             d="m 82.755054,109.45675 -1.539522,-2.10009 -2.518833,1.47038"
             style="fill:none;stroke:#1c1c21;stroke-width:0.26105556;stroke-linecap:butt;stroke-linejoin:miter;stroke-miterlimit:10;stroke-dasharray:none;stroke-opacity:1"
             id="path4030"
             inkscape:connector-curvature="0" />
          <path
             d="m 87.444164,109.94696 -1.786467,-2.46979 -2.132541,2.11772"
             style="fill:none;stroke:#1c1c21;stroke-width:0.26105556;stroke-linecap:butt;stroke-linejoin:miter;stroke-miterlimit:10;stroke-dasharray:none;stroke-opacity:1"
             id="path4034"
             inkscape:connector-curvature="0" />
          <path
             d="m 73.272414,81.010587 -3.282597,-3.394428 0.764116,2.973917 -1.932869,1.364192 3.004608,1.002241 z"
             style="fill:#f25c19;fill-opacity:1;fill-rule:nonzero;stroke:none;stroke-width:0.35277778"
             id="path4038"
             inkscape:connector-curvature="0" />
          <path
             d="m 73.272414,81.010587 -3.282597,-3.394428 0.764116,2.973917 -1.932869,1.364192 3.004608,1.002241 z"
             style="fill:none;stroke:#1c1c21;stroke-width:0.26105556;stroke-linecap:butt;stroke-linejoin:miter;stroke-miterlimit:10;stroke-dasharray:none;stroke-opacity:1"
             id="path4042"
             inkscape:connector-curvature="0" />
          <path
             d="m 84.005954,85.626507 c 0,0 -2.834569,-3.006372 -3.6703,-5.006975 -0.833967,-2.000955 -5.34035,-2.000955 -7.342716,-1.002594 -2.000956,1.002594 -2.670528,5.508625 -2.670528,10.014655 0,4.502855 -1.501422,10.845447 10.179402,14.184837 11.682589,3.33552 18.690872,-8.34707 19.358328,-9.012762 0.66745,-0.66922 10.51172,-10.34803 10.51172,-10.34803 l -6.00533,-3.002492 -7.176212,12.015258 c 0,0 -10.6807,-4.50603 -13.184364,-7.841897"
             style="fill:#f6de54;fill-opacity:1;fill-rule:nonzero;stroke:none;stroke-width:0.35277778"
             id="path4046"
             inkscape:connector-curvature="0" />
          <path
             d="m 84.005954,85.626507 c 0,0 -2.834569,-3.006372 -3.6703,-5.006975 -0.833967,-2.000955 -5.34035,-2.000955 -7.342716,-1.002594 -2.000956,1.002594 -2.670528,5.508625 -2.670528,10.014655 0,4.502855 -1.501422,10.845447 10.179402,14.184837 11.682589,3.33552 18.690872,-8.34707 19.358328,-9.012762 0.66745,-0.66922 10.51172,-10.34803 10.51172,-10.34803 l -6.00533,-3.002492 -7.176212,12.015258 c 0,0 -10.6807,-4.50603 -13.184364,-7.841897 z"
             style="fill:none;stroke:#1c1c21;stroke-width:0.26105556;stroke-linecap:butt;stroke-linejoin:miter;stroke-miterlimit:10;stroke-dasharray:none;stroke-opacity:1"
             id="path4050"
             inkscape:connector-curvature="0" />
          <path
             d="m 84.005954,85.626507 c 0,0 -2.834569,-3.006372 -3.6703,-5.006975 -0.833967,-2.000955 -5.34035,-2.000955 -7.342716,-1.002594 -2.000956,1.002594 -2.670528,5.508625 -2.670528,10.014655 0,4.502855 -1.501422,10.845447 10.179402,14.184837 11.682589,3.33552 18.690872,-8.34707 19.358328,-9.012762 0.66745,-0.66922 10.51172,-10.34803 10.51172,-10.34803 l -6.00533,-3.002492 -7.176212,12.015258 c 0,0 -10.6807,-4.50603 -13.184364,-7.841897"
             style="fill:url(#pattern9085);fill-opacity:1;fill-rule:nonzero;stroke:none;stroke-width:0.35277778"
             id="path4064"
             inkscape:connector-curvature="0" />
          <path
             d="m 84.005954,85.626507 c 0,0 -2.834569,-3.006372 -3.6703,-5.006975 -0.833967,-2.000955 -5.34035,-2.000955 -7.342716,-1.002594 -2.000956,1.002594 -2.670528,5.508625 -2.670528,10.014655 0,4.502855 -1.501422,10.845447 10.179402,14.184837 11.682589,3.33552 18.690872,-8.34707 19.358328,-9.012762 0.66745,-0.66922 10.51172,-10.34803 10.51172,-10.34803 l -6.00533,-3.002492 -7.176212,12.015258 c 0,0 -10.6807,-4.50603 -13.184364,-7.841897 z"
             style="fill:none;stroke:#1c1c21;stroke-width:0.26105556;stroke-linecap:butt;stroke-linejoin:miter;stroke-miterlimit:10;stroke-dasharray:none;stroke-opacity:1"
             id="path4068"
             inkscape:connector-curvature="0" />
          <path
             d="m 84.005954,84.624477 c 0,0 -3.335867,2.834569 -3.836811,5.34035 -0.501297,2.501547 0.667103,6.506986 7.84225,9.177161 7.1755,2.669822 14.518927,-3.171825 15.018807,-4.506736 0.5006,-1.334911 -13.182952,-9.176808 -19.024246,-10.010775"
             style="fill:#f78f1a;fill-opacity:1;fill-rule:nonzero;stroke:none;stroke-width:0.35277778"
             id="path4072"
             inkscape:connector-curvature="0" />
          <path
             d="m 84.005954,84.624477 c 0,0 -3.335867,2.834569 -3.836811,5.34035 -0.501297,2.501547 0.667103,6.506986 7.84225,9.177161 7.1755,2.669822 14.518927,-3.171825 15.018807,-4.506736 0.5006,-1.334911 -13.182952,-9.176808 -19.024246,-10.010775 z"
             style="fill:none;stroke:#1c1c21;stroke-width:0.26105556;stroke-linecap:butt;stroke-linejoin:miter;stroke-miterlimit:10;stroke-dasharray:none;stroke-opacity:1"
             id="path4076"
             inkscape:connector-curvature="0" />
          <path
             d="m 78.206814,84.211087 c 0,1.100667 -1.834444,2.626078 -3.254022,2.626078 -1.420636,0 -2.626078,-1.631245 -2.626078,-2.732617 0,-1.100314 1.519767,-2.413705 2.940756,-2.413705 1.419577,0 2.939344,1.418872 2.939344,2.520244"
             style="fill:#f78f1a;fill-opacity:1;fill-rule:nonzero;stroke:none;stroke-width:0.35277778"
             id="path4080"
             inkscape:connector-curvature="0" />
          <path
             d="m 73.237624,81.288607 c 0,0 -0.164747,1.027642 0.446264,1.181453 0.698853,0.17533 1.478139,-0.376767 1.478139,-0.376767 l -0.349603,-0.186619 c 0,0 -0.716844,0.398639 -1.014942,0.153458 -0.296333,-0.245181 -0.280105,-0.632531 -0.280105,-0.632531 z"
             style="fill:#1c1c21;fill-opacity:1;fill-rule:nonzero;stroke:none;stroke-width:0.35277778"
             id="path4084"
             inkscape:connector-curvature="0" />
          <path
             d="m 51.123197,91.32632 c -2.023886,1.011414 -2.149122,-2.565753 0.09525,-1.559278 -1.812219,-1.613252 1.53035,-2.95663 1.395942,-0.698147 0.134408,-2.258483 3.325636,-0.152753 1.302102,0.860425 2.465211,-0.609953 1.794228,2.802819 -0.09349,1.557514 1.887714,1.245305 -1.532466,2.956278 -1.395941,0.699558 -0.61207,2.070806 -3.077281,0.321028 -1.303867,-0.860072"
             style="fill:#efaabe;fill-opacity:1;fill-rule:nonzero;stroke:none;stroke-width:0.35277778"
             id="path4088"
             inkscape:connector-curvature="0" />
          <path
             d="m 54.136267,96.49154 c -0.874889,1.512006 -2.478264,-0.738717 -0.603956,-1.047044 -1.855611,-0.265995 -0.270933,-2.557992 0.603956,-1.042812 -0.874889,-1.51518 2.079978,-1.51518 1.206853,0 1.328561,-1.444624 2.3495,1.042812 0.602191,1.042812 1.747309,0 0.270934,2.55905 -0.602191,1.047044 0.486128,1.595261 -1.847497,1.518356 -1.206853,0"
             style="fill:#efaabe;fill-opacity:1;fill-rule:nonzero;stroke:none;stroke-width:0.35277778"
             id="path4092"
             inkscape:connector-curvature="0" />
          <path
             d="M 49.532597,96.47863 C 48.79,97.765211 47.425103,95.849274 49.021069,95.589277 47.44133,95.361383 48.79,93.409463 49.532597,94.699924 c -0.742597,-1.290461 1.772003,-1.290461 1.027642,0 1.131711,-1.229077 2.001661,0.889353 0.513291,0.889353 1.48837,0 0.23107,2.175934 -0.513291,0.889353 0.414161,1.357489 -1.571625,1.290814 -1.027642,0"
             style="fill:#efaabe;fill-opacity:1;fill-rule:nonzero;stroke:none;stroke-width:0.35277778"
             id="path4096"
             inkscape:connector-curvature="0" />
          <path
             d="m 52.058887,99.31996 c -0.494242,0.85336 -1.395942,-0.417689 -0.340431,-0.587728 -1.044575,-0.151341 -0.153811,-1.444625 0.340431,-0.591255 -0.494242,-0.85337 1.171928,-0.85337 0.67945,0 0.749653,-0.811389 1.325739,0.591255 0.341489,0.591255 0.98425,0 0.150989,1.441088 -0.341489,0.587728 0.274461,0.89852 -1.039989,0.85654 -0.67945,0"
             style="fill:#efaabe;fill-opacity:1;fill-rule:nonzero;stroke:none;stroke-width:0.35277778"
             id="path4100"
             inkscape:connector-curvature="0" />
          <path
             d="m 47.375637,100.91177 c -0.778228,1.34515 -2.203803,-0.65828 -0.537633,-0.930614 -1.648531,-0.238129 -0.240595,-2.276479 0.537633,-0.931337 -0.778228,-1.345142 1.850672,-1.345142 1.072092,0 1.183216,-1.280583 2.09303,0.931337 0.536222,0.931337 1.556808,0 0.242358,2.275764 -0.536222,0.930614 0.433564,1.41605 -1.641828,1.34832 -1.072092,0"
             style="fill:#efaabe;fill-opacity:1;fill-rule:nonzero;stroke:none;stroke-width:0.35277778"
             id="path4104"
             inkscape:connector-curvature="0" />
          <g
             transform="translate(15.234363,5.61266)"
             id="g9066">
            <g
               id="g4106"
               transform="matrix(0.35277777,0,0,-0.35277777,51.733682,48.101024)">
              <path
                 d="m 0,0 -2.159,27.628 -28.023,-3.112 2.602,-30.499 c -0.899,0.07 -1.874,0.062 -2.911,0.062 -4.25,0 -7.691,-2.421 -7.691,-5.425 0,-2.996 3.666,-5.991 7.911,-5.991 2.536,0 4.69,-0.248 6.029,0.974 0.904,0.825 0.979,6.364 0.433,8.749 l -2.03,26.601 20.777,2.205 1.17,-17.895 c -1.054,0.266 -2.252,0.391 -3.541,0.391 -4.25,0 -7.689,-2.438 -7.689,-5.426 0,-3.004 3.439,-5.433 7.689,-5.433 3.816,0 6.958,0.045 7.561,3.98 0,0 0.018,2.668 -0.128,3.191"
                 style="fill:#b11a2e;fill-opacity:1;fill-rule:nonzero;stroke:none"
                 id="path4108"
                 inkscape:connector-curvature="0" />
            </g>
            <g
               id="g4110"
               transform="matrix(0.35277777,0,0,-0.35277777,51.733682,48.101024)">
              <path
                 d="m 0,0 -2.159,27.628 -28.023,-3.112 2.602,-30.499 c -0.899,0.07 -1.874,0.062 -2.911,0.062 -4.25,0 -7.691,-2.421 -7.691,-5.425 0,-2.996 3.666,-5.991 7.911,-5.991 2.536,0 4.69,-0.248 6.029,0.974 0.904,0.825 0.979,6.364 0.433,8.749 l -2.03,26.601 20.777,2.205 1.17,-17.895 c -1.054,0.266 -2.252,0.391 -3.541,0.391 -4.25,0 -7.689,-2.438 -7.689,-5.426 0,-3.004 3.439,-5.433 7.689,-5.433 3.816,0 6.958,0.045 7.561,3.98 0,0 0.018,2.668 -0.128,3.191 z"
                 style="fill:none;stroke:#1c1c21;stroke-width:0.63300002;stroke-linecap:butt;stroke-linejoin:miter;stroke-miterlimit:10;stroke-dasharray:none;stroke-opacity:1"
                 id="path4112"
                 inkscape:connector-curvature="0" />
            </g>
          </g>
          <g
             transform="translate(8.8198944,21.648832)"
             id="g9072">
            <g
               id="g4114"
               transform="matrix(0.35277777,0,0,-0.35277777,75.912037,47.352644)">
              <path
                 d="m 0,0 2.532,32.316 -32.947,1.504 -2.542,-35.716 c -1.027,0.246 -2.155,0.413 -3.354,0.602 -4.91,0.773 -9.326,-1.398 -9.872,-4.87 -0.546,-3.462 3.146,-7.59 8.051,-8.363 2.93,-0.461 5.373,-1.139 7.143,0.03 1.194,0.789 2.29,7.176 2.093,10.03 l 2.494,31.107 24.409,-1.232 -1.903,-20.89 c -1.171,0.499 -2.532,0.86 -4.021,1.095 -4.912,0.773 -9.33,-1.418 -9.873,-4.87 -0.546,-3.471 2.986,-6.904 7.897,-7.677 4.409,-0.694 8.047,-1.214 9.461,3.223 0,0 0.504,3.08 0.432,3.711"
                 style="fill:#f78f1a;fill-opacity:1;fill-rule:nonzero;stroke:none"
                 id="path4116"
                 inkscape:connector-curvature="0" />
            </g>
            <g
               id="g4118"
               transform="matrix(0.35277777,0,0,-0.35277777,75.912037,47.352644)">
              <path
                 d="m 0,0 2.532,32.316 -32.947,1.504 -2.542,-35.716 c -1.027,0.246 -2.155,0.413 -3.354,0.602 -4.91,0.773 -9.326,-1.398 -9.872,-4.87 -0.546,-3.462 3.146,-7.59 8.051,-8.363 2.93,-0.461 5.373,-1.139 7.143,0.03 1.194,0.789 2.29,7.176 2.093,10.03 l 2.494,31.107 24.409,-1.232 -1.903,-20.89 c -1.171,0.499 -2.532,0.86 -4.021,1.095 -4.912,0.773 -9.33,-1.418 -9.873,-4.87 -0.546,-3.471 2.986,-6.904 7.897,-7.677 4.409,-0.694 8.047,-1.214 9.461,3.223 0,0 0.504,3.08 0.432,3.711 z"
                 style="fill:none;stroke:#1c1c21;stroke-width:0.74000001;stroke-linecap:butt;stroke-linejoin:miter;stroke-miterlimit:10;stroke-dasharray:none;stroke-opacity:1"
                 id="path4120"
                 inkscape:connector-curvature="0" />
            </g>
          </g>
        </g>
      </g>
    </g>
  </g>
</svg>
